<svg style="stroke-width: 4; height: inherit !important; width: inherit !important;fill:white;"
   xmlns:dc="http://purl.org/dc/elements/1.1/"
   xmlns:cc="http://creativecommons.org/ns#"
   xmlns:rdf="http://www.w3.org/1999/02/22-rdf-syntax-ns#"
   xmlns:svg="http://www.w3.org/2000/svg"
   xmlns="http://www.w3.org/2000/svg"
   xmlns:sodipodi="http://sodipodi.sourceforge.net/DTD/sodipodi-0.dtd"
   xmlns:inkscape="http://www.inkscape.org/namespaces/inkscape"
   width="50.058949mm"
   height="49.039913mm"
   viewBox="0 0 350.41264 343.27939"
   version="1.1"
   sodipodi:docname="DigiByte_D.svg"
   inkscape:version="1.0.1 (3bc2e813f5, 2020-09-07)">
  <g
     transform="translate(-3.2936854,-3.3602999)">
    <path
       d="m 39.470372,346.16025 c 0,-0.23505 1.68407,-4.78794 3.742349,-10.11733 2.058269,-5.32963 3.742349,-9.87391 3.742349,-10.09877 0,-0.22459 -9.436654,-0.69763 -20.970313,-1.05137 C 14.451087,324.53904 4.8527143,324.08809 4.6550514,323.89042 4.3737505,323.60886 64.278174,175.52574 82.955143,130.33298 l 3.86653,-9.35589 h 36.036317 c 38.93075,0 37.86567,-0.15139 39.93904,5.67895 0.55148,1.55068 -22.12717,62.14853 -51.46032,137.50295 -0.49148,1.26255 1.0858,1.38945 9.72368,0.78226 29.27557,-2.05784 53.86574,-10.20814 76.83948,-25.468 13.26474,-8.81086 32.55569,-28.12104 41.41239,-41.45353 20.66032,-31.10152 29.52789,-65.00517 21.65641,-82.79998 C 256.14398,104.31278 243.71298,95.0774 230.01048,92.219891 226.08527,91.401405 190.33011,91.038329 113.6411,91.038329 52.754345,91.038329 3.0982333,90.646101 3.2942638,90.16676 3.4902944,89.687399 10.145582,77.846646 18.083806,63.853971 27.724139,46.860931 33.582684,37.652394 35.726318,36.1232 c 3.176796,-2.266165 3.826447,-2.292534 63.889005,-2.590493 34.684977,-0.172069 60.679647,-0.710269 60.679647,-1.256233 0,-0.52535 2.44588,-7.246414 5.43534,-14.935691 l 5.43541,-13.9804831 h 19.10405 c 16.55856,0 19.23428,0.232581 20.08094,1.7454717 0.69332,1.2388413 -0.50632,5.5836794 -4.13299,14.9694154 l -5.10983,13.223955 h 8.90413 8.90416 l 3.34313,-8.821272 c 1.83874,-4.851699 4.40455,-11.587946 5.70164,-14.9694259 l 2.35858,-6.1481442 h 18.85357 c 15.23062,0 19.10277,0.3001777 20.15009,1.5621547 1.04429,1.2582309 0.30018,4.1846887 -3.82475,15.0417734 -3.96368,10.432638 -4.80853,13.672908 -3.7376,14.334708 0.76096,0.470373 4.1048,1.142018 7.43073,1.492685 3.32593,0.350655 10.61849,1.802531 16.20513,3.226363 38.33096,9.768937 60.82644,29.401749 66.95785,58.435794 5.35071,25.339222 -5.33734,62.943872 -29.32898,103.195192 -17.38613,29.16806 -41.53519,54.13589 -70.77566,73.17543 -22.4384,14.6105 -53.05923,27.87239 -83.84663,36.31352 -8.77231,2.4049 -16.04998,4.49288 -16.17266,4.63971 -0.12271,0.14724 -2.48747,6.28159 -5.25508,13.63275 -7.57914,20.13134 -4.52756,18.1777 -28.39018,18.1777 H 98.309952 l 2.242208,-5.61358 c 1.23326,-3.08801 3.39878,-8.6519 4.81238,-12.36463 l 2.57023,-6.75106 -4.82797,0.60264 c -2.65544,0.33151 -6.872944,0.85599 -9.372308,1.16468 l -4.544278,0.5619 -3.207756,8.70846 c -5.340842,14.49874 -3.759392,13.69159 -26.808692,13.69159 -10.836859,0 -19.703394,-0.19291 -19.703394,-0.42783 z" />
  </g>
</svg>
